<mxfile host="app.diagrams.net" modified="2023-11-14T02:03:25.749Z" agent="Mozilla/5.0 (Windows NT 10.0; Win64; x64) AppleWebKit/537.36 (KHTML, like Gecko) Chrome/116.0.0.0 Safari/537.36" etag="ow5LUMl6b_xaeRXXGMlc" version="22.1.0" type="github">
  <diagram name="Page-1" id="YVslMSiEUXGY_u_CL3he">
    <mxGraphModel dx="1390" dy="793" grid="0" gridSize="10" guides="1" tooltips="1" connect="1" arrows="1" fold="1" page="0" pageScale="1" pageWidth="850" pageHeight="1100" math="0" shadow="0">
      <root>
        <mxCell id="0" />
        <mxCell id="1" parent="0" />
      </root>
    </mxGraphModel>
  </diagram>
</mxfile>
